<mxfile host="65bd71144e">
    <diagram name="Page-1" id="0783ab3e-0a74-02c8-0abd-f7b4e66b4bec">
        <mxGraphModel dx="2974" dy="1440" grid="1" gridSize="10" guides="1" tooltips="1" connect="1" arrows="1" fold="1" page="1" pageScale="1" pageWidth="850" pageHeight="1100" background="none" math="0" shadow="0">
            <root>
                <mxCell id="0"/>
                <mxCell id="1" parent="0"/>
                <mxCell id="kcJR1z88Xna4uX1gyB92-9" value="" style="shape=ext;double=1;rounded=0;whiteSpace=wrap;html=1;fontSize=28;fillColor=#ffe6cc;strokeColor=#d79b00;" parent="1" vertex="1">
                    <mxGeometry x="-640" y="70" width="580" height="530" as="geometry"/>
                </mxCell>
                <mxCell id="kcJR1z88Xna4uX1gyB92-10" value="user service" style="shape=ext;double=1;rounded=0;whiteSpace=wrap;html=1;fontSize=28;" parent="1" vertex="1">
                    <mxGeometry x="-590" y="100" width="200" height="80" as="geometry"/>
                </mxCell>
                <mxCell id="kcJR1z88Xna4uX1gyB92-11" value="product service" style="shape=ext;double=1;rounded=0;whiteSpace=wrap;html=1;fontSize=28;" parent="1" vertex="1">
                    <mxGeometry x="-590" y="200" width="200" height="80" as="geometry"/>
                </mxCell>
                <mxCell id="kcJR1z88Xna4uX1gyB92-12" value="api gateway&lt;br style=&quot;font-size: 28px;&quot;&gt;" style="shape=ext;double=1;rounded=0;whiteSpace=wrap;html=1;fontSize=28;" parent="1" vertex="1">
                    <mxGeometry x="-230" y="290" width="120" height="80" as="geometry"/>
                </mxCell>
                <mxCell id="kcJR1z88Xna4uX1gyB92-13" value="cart service" style="shape=ext;double=1;rounded=0;whiteSpace=wrap;html=1;fontSize=28;" parent="1" vertex="1">
                    <mxGeometry x="-590" y="300" width="200" height="80" as="geometry"/>
                </mxCell>
                <mxCell id="kcJR1z88Xna4uX1gyB92-14" value="eureca server" style="shape=ext;double=1;rounded=0;whiteSpace=wrap;html=1;fontSize=28;" parent="1" vertex="1">
                    <mxGeometry x="-590" y="400" width="200" height="80" as="geometry"/>
                </mxCell>
                <mxCell id="kcJR1z88Xna4uX1gyB92-15" value="authentication service" style="shape=ext;double=1;rounded=0;whiteSpace=wrap;html=1;fontSize=28;" parent="1" vertex="1">
                    <mxGeometry x="-590" y="500" width="200" height="80" as="geometry"/>
                </mxCell>
                <mxCell id="kcJR1z88Xna4uX1gyB92-17" value="" style="endArrow=classic;html=1;rounded=0;exitX=0;exitY=0.5;exitDx=0;exitDy=0;entryX=1;entryY=0.5;entryDx=0;entryDy=0;fontSize=28;" parent="1" source="kcJR1z88Xna4uX1gyB92-12" target="kcJR1z88Xna4uX1gyB92-10" edge="1">
                    <mxGeometry width="50" height="50" relative="1" as="geometry">
                        <mxPoint x="-30" y="360" as="sourcePoint"/>
                        <mxPoint x="20" y="310" as="targetPoint"/>
                    </mxGeometry>
                </mxCell>
                <mxCell id="kcJR1z88Xna4uX1gyB92-19" value="" style="endArrow=classic;html=1;rounded=0;entryX=1;entryY=0.5;entryDx=0;entryDy=0;exitX=0;exitY=0.5;exitDx=0;exitDy=0;fontSize=28;" parent="1" source="kcJR1z88Xna4uX1gyB92-12" target="kcJR1z88Xna4uX1gyB92-11" edge="1">
                    <mxGeometry width="50" height="50" relative="1" as="geometry">
                        <mxPoint x="-210" y="340" as="sourcePoint"/>
                        <mxPoint x="-460" y="150" as="targetPoint"/>
                    </mxGeometry>
                </mxCell>
                <mxCell id="kcJR1z88Xna4uX1gyB92-20" value="" style="endArrow=classic;html=1;rounded=0;exitX=0;exitY=0.5;exitDx=0;exitDy=0;entryX=1;entryY=0.5;entryDx=0;entryDy=0;fontSize=28;" parent="1" source="kcJR1z88Xna4uX1gyB92-12" target="kcJR1z88Xna4uX1gyB92-13" edge="1">
                    <mxGeometry width="50" height="50" relative="1" as="geometry">
                        <mxPoint x="40" y="350" as="sourcePoint"/>
                        <mxPoint x="-450" y="160" as="targetPoint"/>
                    </mxGeometry>
                </mxCell>
                <mxCell id="kcJR1z88Xna4uX1gyB92-21" value="" style="endArrow=classic;html=1;rounded=0;exitX=0;exitY=0.5;exitDx=0;exitDy=0;entryX=1.02;entryY=0.384;entryDx=0;entryDy=0;entryPerimeter=0;fontSize=28;" parent="1" source="kcJR1z88Xna4uX1gyB92-12" target="kcJR1z88Xna4uX1gyB92-14" edge="1">
                    <mxGeometry width="50" height="50" relative="1" as="geometry">
                        <mxPoint x="50" y="360" as="sourcePoint"/>
                        <mxPoint x="-440" y="170" as="targetPoint"/>
                    </mxGeometry>
                </mxCell>
                <mxCell id="kcJR1z88Xna4uX1gyB92-23" value="" style="endArrow=classic;html=1;rounded=0;entryX=1;entryY=0.5;entryDx=0;entryDy=0;exitX=0;exitY=0.5;exitDx=0;exitDy=0;fontSize=28;" parent="1" source="kcJR1z88Xna4uX1gyB92-12" target="kcJR1z88Xna4uX1gyB92-15" edge="1">
                    <mxGeometry width="50" height="50" relative="1" as="geometry">
                        <mxPoint x="20" y="330" as="sourcePoint"/>
                        <mxPoint x="-458" y="441" as="targetPoint"/>
                    </mxGeometry>
                </mxCell>
                <mxCell id="kcJR1z88Xna4uX1gyB92-25" value="USER INTERFACE" style="rounded=0;whiteSpace=wrap;html=1;fontSize=28;fillColor=#f8cecc;strokeColor=#b85450;" parent="1" vertex="1">
                    <mxGeometry x="130" y="70" width="510" height="530" as="geometry"/>
                </mxCell>
                <mxCell id="kcJR1z88Xna4uX1gyB92-26" value="" style="shape=flexArrow;endArrow=classic;startArrow=classic;html=1;rounded=0;entryX=0;entryY=0.5;entryDx=0;entryDy=0;exitX=1;exitY=0.5;exitDx=0;exitDy=0;fontSize=28;" parent="1" source="kcJR1z88Xna4uX1gyB92-9" target="kcJR1z88Xna4uX1gyB92-25" edge="1">
                    <mxGeometry width="100" height="100" relative="1" as="geometry">
                        <mxPoint x="-60" y="380" as="sourcePoint"/>
                        <mxPoint x="40" y="280" as="targetPoint"/>
                    </mxGeometry>
                </mxCell>
                <mxCell id="kcJR1z88Xna4uX1gyB92-27" value="BACKEND" style="text;html=1;strokeColor=none;fillColor=none;align=center;verticalAlign=middle;whiteSpace=wrap;rounded=0;fontSize=28;" parent="1" vertex="1">
                    <mxGeometry x="-240" y="100" width="60" height="30" as="geometry"/>
                </mxCell>
                <mxCell id="kcJR1z88Xna4uX1gyB92-32" value="FRONTEND" style="text;html=1;strokeColor=none;fillColor=none;align=center;verticalAlign=middle;whiteSpace=wrap;rounded=0;fontSize=28;" parent="1" vertex="1">
                    <mxGeometry x="365" y="110" width="60" height="30" as="geometry"/>
                </mxCell>
                <mxCell id="kcJR1z88Xna4uX1gyB92-37" value="DATABASE" style="rounded=0;whiteSpace=wrap;html=1;fontSize=28;fillColor=#ffe6cc;strokeColor=#d79b00;" parent="1" vertex="1">
                    <mxGeometry x="-565" y="730" width="430" height="260" as="geometry"/>
                </mxCell>
                <mxCell id="kcJR1z88Xna4uX1gyB92-38" value="" style="shape=flexArrow;endArrow=classic;startArrow=classic;html=1;rounded=0;entryX=0.5;entryY=1;entryDx=0;entryDy=0;exitX=0.5;exitY=0;exitDx=0;exitDy=0;fontSize=28;" parent="1" source="kcJR1z88Xna4uX1gyB92-37" target="kcJR1z88Xna4uX1gyB92-9" edge="1">
                    <mxGeometry width="100" height="100" relative="1" as="geometry">
                        <mxPoint x="-460" y="730" as="sourcePoint"/>
                        <mxPoint x="-360" y="630" as="targetPoint"/>
                    </mxGeometry>
                </mxCell>
            </root>
        </mxGraphModel>
    </diagram>
</mxfile>